<mxfile host="app.diagrams.net" modified="2023-05-23T08:57:42.624Z" agent="Mozilla/5.0 (Windows NT 10.0; Win64; x64) AppleWebKit/537.36 (KHTML, like Gecko) Chrome/113.0.0.0 Safari/537.36" etag="N9ZYcEKIrzZMOx77_8Zd" version="21.2.9" type="github">
  <diagram name="Page-1" id="2YBvvXClWsGukQMizWep">
    <mxGraphModel dx="3088" dy="764" grid="1" gridSize="10" guides="1" tooltips="1" connect="1" arrows="1" fold="1" page="1" pageScale="1" pageWidth="1654" pageHeight="1169" math="0" shadow="0">
      <root>
        <mxCell id="0" />
        <mxCell id="1" parent="0" />
        <mxCell id="aM9ryv3xv72pqoxQDRHE-1" value="visitor" style="shape=umlLifeline;perimeter=lifelinePerimeter;whiteSpace=wrap;html=1;container=0;dropTarget=0;collapsible=0;recursiveResize=0;outlineConnect=0;portConstraint=eastwest;newEdgeStyle={&quot;edgeStyle&quot;:&quot;elbowEdgeStyle&quot;,&quot;elbow&quot;:&quot;vertical&quot;,&quot;curved&quot;:0,&quot;rounded&quot;:0};" parent="1" vertex="1">
          <mxGeometry x="-890" y="100" width="100" height="460" as="geometry" />
        </mxCell>
        <mxCell id="aM9ryv3xv72pqoxQDRHE-5" value="gate/live" style="shape=umlLifeline;perimeter=lifelinePerimeter;whiteSpace=wrap;html=1;container=0;dropTarget=0;collapsible=0;recursiveResize=0;outlineConnect=0;portConstraint=eastwest;newEdgeStyle={&quot;edgeStyle&quot;:&quot;elbowEdgeStyle&quot;,&quot;elbow&quot;:&quot;vertical&quot;,&quot;curved&quot;:0,&quot;rounded&quot;:0};" parent="1" vertex="1">
          <mxGeometry x="-735" y="100" width="100" height="460" as="geometry" />
        </mxCell>
        <mxCell id="Ca2zZKz_4yxxaJ0Nb7Iz-2" value="chat-allocation" style="shape=umlLifeline;perimeter=lifelinePerimeter;whiteSpace=wrap;html=1;container=1;dropTarget=0;collapsible=0;recursiveResize=0;outlineConnect=0;portConstraint=eastwest;newEdgeStyle={&quot;edgeStyle&quot;:&quot;elbowEdgeStyle&quot;,&quot;elbow&quot;:&quot;vertical&quot;,&quot;curved&quot;:0,&quot;rounded&quot;:0};" vertex="1" parent="1">
          <mxGeometry x="-405" y="100" width="100" height="460" as="geometry" />
        </mxCell>
        <mxCell id="Ca2zZKz_4yxxaJ0Nb7Iz-3" value="chat" style="shape=umlLifeline;perimeter=lifelinePerimeter;whiteSpace=wrap;html=1;container=1;dropTarget=0;collapsible=0;recursiveResize=0;outlineConnect=0;portConstraint=eastwest;newEdgeStyle={&quot;edgeStyle&quot;:&quot;elbowEdgeStyle&quot;,&quot;elbow&quot;:&quot;vertical&quot;,&quot;curved&quot;:0,&quot;rounded&quot;:0};" vertex="1" parent="1">
          <mxGeometry x="-565" y="100" width="100" height="460" as="geometry" />
        </mxCell>
        <mxCell id="Ca2zZKz_4yxxaJ0Nb7Iz-4" value="MQ" style="shape=umlLifeline;perimeter=lifelinePerimeter;whiteSpace=wrap;html=1;container=1;dropTarget=0;collapsible=0;recursiveResize=0;outlineConnect=0;portConstraint=eastwest;newEdgeStyle={&quot;edgeStyle&quot;:&quot;elbowEdgeStyle&quot;,&quot;elbow&quot;:&quot;vertical&quot;,&quot;curved&quot;:0,&quot;rounded&quot;:0};" vertex="1" parent="1">
          <mxGeometry x="-265" y="100" width="100" height="460" as="geometry" />
        </mxCell>
        <mxCell id="Ca2zZKz_4yxxaJ0Nb7Iz-5" value="trust" style="shape=umlLifeline;perimeter=lifelinePerimeter;whiteSpace=wrap;html=1;container=1;dropTarget=0;collapsible=0;recursiveResize=0;outlineConnect=0;portConstraint=eastwest;newEdgeStyle={&quot;edgeStyle&quot;:&quot;elbowEdgeStyle&quot;,&quot;elbow&quot;:&quot;vertical&quot;,&quot;curved&quot;:0,&quot;rounded&quot;:0};" vertex="1" parent="1">
          <mxGeometry x="-115" y="100" width="100" height="460" as="geometry" />
        </mxCell>
        <mxCell id="Ca2zZKz_4yxxaJ0Nb7Iz-6" value="AI" style="shape=umlLifeline;perimeter=lifelinePerimeter;whiteSpace=wrap;html=1;container=1;dropTarget=0;collapsible=0;recursiveResize=0;outlineConnect=0;portConstraint=eastwest;newEdgeStyle={&quot;edgeStyle&quot;:&quot;elbowEdgeStyle&quot;,&quot;elbow&quot;:&quot;vertical&quot;,&quot;curved&quot;:0,&quot;rounded&quot;:0};" vertex="1" parent="1">
          <mxGeometry x="35" y="100" width="100" height="450" as="geometry" />
        </mxCell>
        <mxCell id="Ca2zZKz_4yxxaJ0Nb7Iz-7" value="" style="html=1;verticalAlign=bottom;endArrow=block;edgeStyle=elbowEdgeStyle;elbow=vertical;curved=0;rounded=0;" edge="1" parent="1" target="aM9ryv3xv72pqoxQDRHE-5">
          <mxGeometry width="80" relative="1" as="geometry">
            <mxPoint x="-835" y="190" as="sourcePoint" />
            <mxPoint x="-765" y="190" as="targetPoint" />
          </mxGeometry>
        </mxCell>
        <mxCell id="Ca2zZKz_4yxxaJ0Nb7Iz-8" value="message" style="edgeLabel;html=1;align=center;verticalAlign=middle;resizable=0;points=[];" vertex="1" connectable="0" parent="Ca2zZKz_4yxxaJ0Nb7Iz-7">
          <mxGeometry x="-0.6522" y="2" relative="1" as="geometry">
            <mxPoint x="39" y="-8" as="offset" />
          </mxGeometry>
        </mxCell>
        <mxCell id="Ca2zZKz_4yxxaJ0Nb7Iz-9" value="message" style="html=1;verticalAlign=bottom;endArrow=block;edgeStyle=elbowEdgeStyle;elbow=vertical;curved=0;rounded=0;" edge="1" parent="1" target="Ca2zZKz_4yxxaJ0Nb7Iz-3">
          <mxGeometry width="80" relative="1" as="geometry">
            <mxPoint x="-685" y="210" as="sourcePoint" />
            <mxPoint x="-605" y="210" as="targetPoint" />
          </mxGeometry>
        </mxCell>
        <mxCell id="Ca2zZKz_4yxxaJ0Nb7Iz-10" value="allocation customer" style="html=1;verticalAlign=bottom;endArrow=block;edgeStyle=elbowEdgeStyle;elbow=vertical;curved=0;rounded=0;" edge="1" parent="1" target="Ca2zZKz_4yxxaJ0Nb7Iz-2">
          <mxGeometry width="80" relative="1" as="geometry">
            <mxPoint x="-510" y="240" as="sourcePoint" />
            <mxPoint x="-440" y="240" as="targetPoint" />
          </mxGeometry>
        </mxCell>
        <mxCell id="Ca2zZKz_4yxxaJ0Nb7Iz-11" value="pub/event=create" style="html=1;verticalAlign=bottom;endArrow=block;edgeStyle=elbowEdgeStyle;elbow=vertical;curved=0;rounded=0;" edge="1" parent="1" target="Ca2zZKz_4yxxaJ0Nb7Iz-4">
          <mxGeometry x="-0.1696" width="80" relative="1" as="geometry">
            <mxPoint x="-350" y="260" as="sourcePoint" />
            <mxPoint x="-280" y="260" as="targetPoint" />
            <mxPoint as="offset" />
          </mxGeometry>
        </mxCell>
        <mxCell id="Ca2zZKz_4yxxaJ0Nb7Iz-14" value="sub/event" style="html=1;verticalAlign=bottom;endArrow=block;edgeStyle=elbowEdgeStyle;elbow=vertical;curved=0;rounded=0;" edge="1" parent="1" target="Ca2zZKz_4yxxaJ0Nb7Iz-5">
          <mxGeometry width="80" relative="1" as="geometry">
            <mxPoint x="-210" y="280" as="sourcePoint" />
            <mxPoint x="-140" y="280" as="targetPoint" />
          </mxGeometry>
        </mxCell>
        <mxCell id="Ca2zZKz_4yxxaJ0Nb7Iz-15" value="begin" style="html=1;verticalAlign=bottom;endArrow=block;edgeStyle=elbowEdgeStyle;elbow=vertical;curved=0;rounded=0;" edge="1" parent="1" target="Ca2zZKz_4yxxaJ0Nb7Iz-6">
          <mxGeometry width="80" relative="1" as="geometry">
            <mxPoint x="-60" y="310" as="sourcePoint" />
            <mxPoint x="20" y="310" as="targetPoint" />
          </mxGeometry>
        </mxCell>
        <mxCell id="Ca2zZKz_4yxxaJ0Nb7Iz-16" value="return" style="html=1;verticalAlign=bottom;endArrow=open;dashed=1;endSize=8;edgeStyle=elbowEdgeStyle;elbow=vertical;curved=0;rounded=0;" edge="1" parent="1" target="Ca2zZKz_4yxxaJ0Nb7Iz-3">
          <mxGeometry relative="1" as="geometry">
            <mxPoint x="-360" y="280" as="sourcePoint" />
            <mxPoint x="-440" y="280" as="targetPoint" />
          </mxGeometry>
        </mxCell>
        <mxCell id="Ca2zZKz_4yxxaJ0Nb7Iz-17" value="pub/message" style="html=1;verticalAlign=bottom;endArrow=block;edgeStyle=elbowEdgeStyle;elbow=vertical;curved=0;rounded=0;" edge="1" parent="1" target="Ca2zZKz_4yxxaJ0Nb7Iz-4">
          <mxGeometry x="-0.1171" y="10" width="80" relative="1" as="geometry">
            <mxPoint x="-510" y="320" as="sourcePoint" />
            <mxPoint x="-430" y="320" as="targetPoint" />
            <mxPoint as="offset" />
          </mxGeometry>
        </mxCell>
        <mxCell id="Ca2zZKz_4yxxaJ0Nb7Iz-18" value="sub/message" style="html=1;verticalAlign=bottom;endArrow=block;edgeStyle=elbowEdgeStyle;elbow=vertical;curved=0;rounded=0;" edge="1" parent="1" target="Ca2zZKz_4yxxaJ0Nb7Iz-5">
          <mxGeometry width="80" relative="1" as="geometry">
            <mxPoint x="-210" y="350" as="sourcePoint" />
            <mxPoint x="-130" y="350" as="targetPoint" />
            <Array as="points">
              <mxPoint x="-200" y="350" />
            </Array>
          </mxGeometry>
        </mxCell>
        <mxCell id="Ca2zZKz_4yxxaJ0Nb7Iz-19" value="answer" style="html=1;verticalAlign=bottom;endArrow=open;dashed=1;endSize=8;edgeStyle=elbowEdgeStyle;elbow=vertical;curved=0;rounded=0;" edge="1" parent="1" source="Ca2zZKz_4yxxaJ0Nb7Iz-6" target="Ca2zZKz_4yxxaJ0Nb7Iz-3">
          <mxGeometry relative="1" as="geometry">
            <mxPoint x="70" y="390" as="sourcePoint" />
            <mxPoint x="-130" y="390" as="targetPoint" />
            <Array as="points">
              <mxPoint x="-130" y="400" />
              <mxPoint x="-120" y="380" />
            </Array>
          </mxGeometry>
        </mxCell>
        <mxCell id="Ca2zZKz_4yxxaJ0Nb7Iz-20" value="pub/answer" style="html=1;verticalAlign=bottom;endArrow=block;edgeStyle=elbowEdgeStyle;elbow=vertical;curved=0;rounded=0;" edge="1" parent="1" source="Ca2zZKz_4yxxaJ0Nb7Iz-3" target="Ca2zZKz_4yxxaJ0Nb7Iz-4">
          <mxGeometry width="80" relative="1" as="geometry">
            <mxPoint x="-510" y="430" as="sourcePoint" />
            <mxPoint x="-440" y="430" as="targetPoint" />
            <Array as="points">
              <mxPoint x="-440" y="450" />
            </Array>
          </mxGeometry>
        </mxCell>
        <mxCell id="Ca2zZKz_4yxxaJ0Nb7Iz-21" value="chat" style="html=1;verticalAlign=bottom;endArrow=block;edgeStyle=elbowEdgeStyle;elbow=vertical;curved=0;rounded=0;" edge="1" parent="1" target="Ca2zZKz_4yxxaJ0Nb7Iz-6">
          <mxGeometry width="80" relative="1" as="geometry">
            <mxPoint x="-60" y="370" as="sourcePoint" />
            <mxPoint x="20" y="370" as="targetPoint" />
          </mxGeometry>
        </mxCell>
        <mxCell id="Ca2zZKz_4yxxaJ0Nb7Iz-22" value="sub/answer" style="html=1;verticalAlign=bottom;endArrow=open;dashed=1;endSize=8;edgeStyle=elbowEdgeStyle;elbow=vertical;curved=0;rounded=0;" edge="1" parent="1" target="aM9ryv3xv72pqoxQDRHE-5">
          <mxGeometry relative="1" as="geometry">
            <mxPoint x="-220" y="480" as="sourcePoint" />
            <mxPoint x="-300" y="480" as="targetPoint" />
          </mxGeometry>
        </mxCell>
        <mxCell id="Ca2zZKz_4yxxaJ0Nb7Iz-23" value="answer" style="html=1;verticalAlign=bottom;endArrow=open;dashed=1;endSize=8;edgeStyle=elbowEdgeStyle;elbow=vertical;curved=0;rounded=0;" edge="1" parent="1" target="aM9ryv3xv72pqoxQDRHE-1">
          <mxGeometry relative="1" as="geometry">
            <mxPoint x="-690" y="520" as="sourcePoint" />
            <mxPoint x="-770" y="520" as="targetPoint" />
          </mxGeometry>
        </mxCell>
      </root>
    </mxGraphModel>
  </diagram>
</mxfile>
